<svg width="64" height="64" viewBox="0 0 64 64" fill="none" xmlns="http://www.w3.org/2000/svg">
<path d="M10.7326 56.1021L6 3H58.0211L53.2822 56.0937L31.979 62L10.7326 56.1021Z" fill="#1572B6"/>
<path d="M32.0106 57.4865L49.2259 52.7138L53.2759 7.34283H32.0106V57.4865Z" fill="#33A9DC"/>
<path d="M32.0106 26.581H40.6288L41.223 19.9119H32.0106V13.3987H48.3409L48.185 15.1456L46.5857 33.0942H32.0106V26.581V26.581Z" fill="white"/>
<path d="M32.0506 43.4951L32.0211 43.5035L24.7683 41.5438L24.3048 36.3497H17.7663L18.6787 46.5757L32.019 50.2801L32.0506 50.2716V43.4951V43.4951Z" fill="#EBEBEB"/>
<path d="M40.0746 32.8182L39.2908 41.5396L32.0274 43.4993V50.2759L45.3783 46.5757L45.4773 45.4758L46.6089 32.8182H40.0746V32.8182Z" fill="white"/>
<path d="M32.0337 13.3987V19.9119H16.3018L16.1712 18.4475L15.8741 15.1456L15.7181 13.3987H32.0337V13.3987ZM32.0106 26.581V33.0942H24.8484L24.7177 31.6297L24.4228 28.3279L24.2668 26.581H32.0106V26.581Z" fill="#EBEBEB"/>
</svg>
