<svg width="64" height="64" viewBox="0 0 64 64" fill="none" xmlns="http://www.w3.org/2000/svg">
<path d="M59.8874 29.8717L34.1274 4.11267C32.6448 2.62911 30.2387 2.62911 28.7542 4.11267L23.4051 9.46195L30.1908 16.2478C31.7676 15.7149 33.5759 16.0724 34.8329 17.3294C36.0958 18.5944 36.4508 20.4182 35.905 22.0001L42.4446 28.54C44.0268 27.995 45.8523 28.3476 47.116 29.6134C48.882 31.3788 48.882 34.2401 47.116 36.0067C45.3494 37.7735 42.4881 37.7735 40.7207 36.0067C39.3922 34.6768 39.0641 32.7259 39.7366 31.0893L33.6379 24.9905L33.6372 41.04C34.0793 41.2586 34.4831 41.5473 34.8329 41.895C36.599 43.6605 36.599 46.522 34.8329 48.29C33.0663 50.0559 30.2037 50.0559 28.4397 48.29C26.6736 46.522 26.6736 43.6607 28.4397 41.8953C28.8629 41.4718 29.3659 41.1365 29.9195 40.9086V24.7096C29.3651 24.4832 28.8618 24.1477 28.4397 23.7229C27.1016 22.3866 26.7798 20.4232 27.4655 18.7802L20.7763 12.0903L3.11317 29.7526C1.62894 31.2375 1.62894 33.6439 3.11317 35.1277L28.8736 60.8872C30.3567 62.3709 32.7623 62.3709 34.2472 60.8872L59.8872 35.2473C61.3709 33.763 61.3709 31.3553 59.8872 29.8717" fill="#DE4C36"/>
</svg>
