<svg width="28" height="28" viewBox="0 0 28 28" fill="none" xmlns="http://www.w3.org/2000/svg">
<path fill-rule="evenodd" clip-rule="evenodd" d="M13.7813 1.3125C6.65055 1.3125 0.875 7.08805 0.875 14.2188C0.875 19.9298 4.56941 24.7535 9.69965 26.4636C10.345 26.5765 10.587 26.1893 10.587 25.8505C10.587 25.544 10.5708 24.5276 10.5708 23.4467C7.32813 24.0436 6.48922 22.6562 6.23109 21.9302C6.0859 21.5592 5.45672 20.4138 4.9082 20.1072C4.45648 19.8652 3.81117 19.2683 4.89207 19.2522C5.90844 19.2361 6.63441 20.1879 6.87641 20.5751C8.03797 22.5271 9.89324 21.9786 10.6354 21.6398C10.7483 20.8009 11.0871 20.2363 11.4581 19.9136C8.58648 19.591 5.58578 18.4778 5.58578 13.5412C5.58578 12.1376 6.0859 10.9761 6.90867 10.0726C6.77961 9.74996 6.32789 8.42707 7.03773 6.65246C7.03773 6.65246 8.11863 6.31367 10.587 7.97535C11.6195 7.68496 12.7165 7.53977 13.8135 7.53977C14.9105 7.53977 16.0076 7.68496 17.0401 7.97535C19.5084 6.29754 20.5893 6.65246 20.5893 6.65246C21.2991 8.42707 20.8474 9.74996 20.7184 10.0726C21.5411 10.9761 22.0413 12.1215 22.0413 13.5412C22.0413 18.4939 19.0244 19.591 16.1528 19.9136C16.6206 20.317 17.0239 21.0913 17.0239 22.3013C17.0239 24.0275 17.0078 25.4149 17.0078 25.8505C17.0078 26.1893 17.2498 26.5926 17.8951 26.4636C20.4572 25.5985 22.6835 23.9519 24.2608 21.7553C25.838 19.5588 26.6867 16.9229 26.6875 14.2188C26.6875 7.08805 20.912 1.3125 13.7813 1.3125Z" fill="white"/>
</svg>
