<svg width="64" height="64" viewBox="0 0 64 64" fill="none" xmlns="http://www.w3.org/2000/svg">
<path d="M10.7347 56.1021L6 3H58.0254L53.2843 56.0937L31.9811 62L10.7347 56.1021Z" fill="#E44F26"/>
<path d="M32.0127 57.4865L49.228 52.7138L53.278 7.34283H32.0127V57.4865Z" fill="#F1662A"/>
<path d="M32.0127 27.0362H23.3945L22.8003 20.3671H32.0127V13.8539H15.6823L15.8383 15.6028L17.4376 33.5493H32.0127V27.0362V27.0362ZM32.0127 43.9502L31.9832 43.9586L24.7304 42.0011L24.2668 36.807H17.7284L18.6408 47.0308L31.9832 50.7352L32.0127 50.7268V43.9502Z" fill="#EBEBEB"/>
<path d="M31.9895 27.0362V33.5493H40.0093L39.2549 41.9969L31.9895 43.9565V50.7331L45.3425 47.0308L45.4394 45.9309L46.9692 28.7851L47.1293 27.0362H31.9895V27.0362ZM31.9895 13.8539V20.3671H47.7214L47.8521 18.9047L48.1492 15.6028L48.3051 13.8539H31.9895V13.8539Z" fill="white"/>
</svg>
