<svg width="64" height="64" viewBox="0 0 64 64" fill="none" xmlns="http://www.w3.org/2000/svg">
<path d="M3 3H62V62H3V3Z" fill="#F5DE19"/>
<path d="M42.6333 49.0938C43.136 50.1149 43.917 50.9731 44.8863 51.5696C45.8556 52.1661 46.9737 52.4766 48.1118 52.4652C50.4086 52.4652 51.8773 51.3168 51.8773 49.7259C51.8773 47.8295 50.3686 47.151 47.84 46.0447L46.4535 45.4505C42.4499 43.7458 39.7949 41.6113 39.7949 37.0978C39.7949 32.9404 42.9556 29.7734 47.9138 29.7734C49.5188 29.6575 51.1224 30.0167 52.5246 30.8062C53.9268 31.5957 55.0655 32.7806 55.7987 34.2131L51.4643 36.984C51.182 36.2737 50.6904 35.6661 50.0548 35.2416C49.4192 34.8171 48.6696 34.5958 47.9053 34.6071C47.5719 34.5738 47.2352 34.6102 46.9166 34.7142C46.598 34.8181 46.3046 34.9873 46.055 35.2109C45.8054 35.4345 45.6052 35.7076 45.467 36.0129C45.3288 36.3182 45.2557 36.6489 45.2524 36.984C45.2524 38.6465 46.2828 39.3208 48.6618 40.3554L50.0483 40.9496C54.7599 42.9704 57.4233 45.0291 57.4233 49.6585C57.4233 54.6503 53.5019 57.3854 48.2361 57.3854C46.1844 57.5161 44.1387 57.0503 42.3459 56.0441C40.553 55.0379 39.0897 53.5344 38.1324 51.715L42.6333 49.0938ZM23.0474 49.5742C23.9176 51.1187 24.7099 52.4251 26.6148 52.4251C28.4353 52.4251 29.5858 51.7129 29.5858 48.942V30.0894H35.1297V49.0158C35.1297 54.7556 31.7583 57.3685 26.8508 57.3685C25.1161 57.4633 23.3933 57.031 21.9088 56.1284C20.4244 55.2258 19.2479 53.8951 18.5339 52.3114L23.0474 49.5742Z" fill="black"/>
</svg>
