<svg width="28" height="28" viewBox="0 0 28 28" fill="none" xmlns="http://www.w3.org/2000/svg">
<path fill-rule="evenodd" clip-rule="evenodd" d="M0.875 3.46902C0.875 2.89708 1.1022 2.34856 1.50663 1.94413C1.91105 1.53971 2.45957 1.3125 3.03152 1.3125H24.5286C24.8121 1.31204 25.0928 1.36749 25.3548 1.47567C25.6168 1.58385 25.8549 1.74264 26.0554 1.94296C26.2559 2.14327 26.415 2.38117 26.5234 2.64303C26.6319 2.90489 26.6877 3.18558 26.6875 3.46902V24.9661C26.6878 25.2496 26.6322 25.5304 26.5239 25.7924C26.4156 26.0544 26.2567 26.2924 26.0563 26.493C25.8559 26.6935 25.6179 26.8525 25.356 26.961C25.094 27.0694 24.8133 27.1252 24.5298 27.125H3.03152C2.74822 27.125 2.4677 27.0692 2.20598 26.9607C1.94427 26.8523 1.70648 26.6933 1.50621 26.493C1.30595 26.2926 1.14712 26.0547 1.03882 25.7929C0.930512 25.5312 0.874846 25.2506 0.875 24.9673V3.46902ZM11.0921 11.1541H14.5873V12.9094C15.0918 11.9003 16.3824 10.9922 18.3219 10.9922C22.0401 10.9922 22.9212 13.002 22.9212 16.6897V23.5206H19.1585V17.5298C19.1585 15.4296 18.6539 14.2446 17.3727 14.2446C15.5952 14.2446 14.856 15.5223 14.856 17.5298V23.5206H11.0921V11.1541ZM4.63893 23.3599H8.40286V10.9922H4.63893V23.3587V23.3599ZM8.94141 6.9584C8.9485 7.28067 8.89116 7.60112 8.77273 7.90093C8.65431 8.20073 8.47719 8.47387 8.25178 8.7043C8.02637 8.93473 7.7572 9.11782 7.46007 9.24281C7.16294 9.36781 6.84383 9.4322 6.52148 9.4322C6.19913 9.4322 5.88003 9.36781 5.5829 9.24281C5.28577 9.11782 5.0166 8.93473 4.79119 8.7043C4.56578 8.47387 4.38866 8.20073 4.27024 7.90093C4.15181 7.60112 4.09447 7.28067 4.10156 6.9584C4.11549 6.32582 4.37657 5.72385 4.82887 5.28139C5.28118 4.83894 5.88875 4.59118 6.52148 4.59118C7.15421 4.59118 7.76179 4.83894 8.2141 5.28139C8.6664 5.72385 8.92748 6.32582 8.94141 6.9584V6.9584Z" fill="white"/>
</svg>
