<svg width="64" height="64" viewBox="0 0 64 64" fill="none" xmlns="http://www.w3.org/2000/svg">
<path d="M58.8861 47H6.11389C4.39414 47 3 48.3941 3 50.1139V50.4417C3 52.1614 4.39414 53.5556 6.11389 53.5556H58.8861C60.6059 53.5556 62 52.1614 62 50.4417V50.1139C62 48.3941 60.6059 47 58.8861 47Z" fill="white"/>
<path d="M58.8861 29H6.11389C4.39414 29 3 30.3941 3 32.1139V32.4417C3 34.1614 4.39414 35.5556 6.11389 35.5556H58.8861C60.6059 35.5556 62 34.1614 62 32.4417V32.1139C62 30.3941 60.6059 29 58.8861 29Z" fill="white"/>
<path d="M58.8861 10H6.11389C4.39414 10 3 11.3941 3 13.1139V13.4417C3 15.1614 4.39414 16.5556 6.11389 16.5556H58.8861C60.6059 16.5556 62 15.1614 62 13.4417V13.1139C62 11.3941 60.6059 10 58.8861 10Z" fill="white"/>
</svg>
