<svg width="28" height="28" viewBox="0 0 28 28" fill="none" xmlns="http://www.w3.org/2000/svg">
<path d="M26.6875 5.98908C25.7383 6.4097 24.7185 6.6939 23.6465 6.82236C24.7526 6.1605 25.5802 5.11881 25.9747 3.89165C24.9355 4.50893 23.7981 4.94343 22.612 5.17625C21.8144 4.32463 20.7579 3.76015 19.6067 3.57047C18.4554 3.38079 17.2737 3.57652 16.245 4.12726C15.2163 4.678 14.3983 5.55295 13.9178 6.61626C13.4374 7.67957 13.3214 8.87175 13.588 10.0077C11.4823 9.90199 9.42228 9.35467 7.54176 8.40129C5.66123 7.4479 4.00219 6.10976 2.6723 4.4737C2.21757 5.2581 1.95611 6.16756 1.95611 7.13612C1.9556 8.00805 2.17032 8.86663 2.58122 9.63567C2.99211 10.4047 3.58648 11.0604 4.31159 11.5447C3.47066 11.5179 2.64828 11.2907 1.91291 10.8819V10.9501C1.91282 12.1731 2.33584 13.3583 3.11018 14.3049C3.88452 15.2514 4.96249 15.9009 6.16118 16.1431C5.38108 16.3542 4.5632 16.3853 3.76932 16.234C4.10752 17.2863 4.76631 18.2064 5.65344 18.8657C6.54058 19.5249 7.61166 19.8902 8.71674 19.9105C6.84081 21.3831 4.52404 22.182 2.13913 22.1784C1.71667 22.1786 1.29457 22.1539 0.874996 22.1046C3.29581 23.6611 6.11382 24.4871 8.99185 24.4839C18.7343 24.4839 24.0603 16.4148 24.0603 9.41657C24.0603 9.18921 24.0546 8.95957 24.0444 8.73221C25.0804 7.98302 25.9746 7.05529 26.6852 5.99249L26.6875 5.98908V5.98908Z" fill="white"/>
</svg>
